<?xml version="1.0" standalone="no"?>
<!DOCTYPE svg PUBLIC "-//W3C//DTD SVG 20010904//EN"
 "http://www.w3.org/TR/2001/REC-SVG-20010904/DTD/svg10.dtd">
<svg version="1.0" xmlns="http://www.w3.org/2000/svg"
 width="256.000000pt" height="256.000000pt" viewBox="0 0 256.000000 256.000000"
 preserveAspectRatio="xMidYMid meet">

<g transform="translate(0.000000,256.000000) scale(0.100000,-0.100000)"
fill="#000000" stroke="none">
<path d="M1803 2146 c-77 -19 -157 -62 -217 -117 l-54 -49 -571 0 c-492 0
-576 -2 -601 -15 -62 -32 -60 -4 -60 -790 l0 -715 34 -38 34 -37 914 -3 c628
-2 925 0 950 8 20 6 46 22 57 37 20 25 21 37 21 471 l0 445 30 48 c127 197 98
452 -69 620 -126 126 -299 176 -468 135z m232 -41 c82 -22 144 -58 210 -124
244 -244 139 -659 -192 -761 -278 -86 -570 115 -590 405 -22 315 268 559 572
480z m-560 -215 c-75 -148 -73 -323 6 -471 38 -71 136 -167 207 -203 178 -90
390 -70 540 51 l42 34 0 -415 c0 -229 -2 -416 -4 -416 -3 0 -117 142 -255 315
-235 295 -253 315 -283 315 -28 0 -49 -18 -176 -150 -115 -120 -147 -148 -158
-139 -7 6 -91 112 -185 235 -94 124 -180 229 -191 235 -10 6 -27 8 -36 4 -10
-3 -156 -187 -326 -410 -169 -223 -309 -405 -311 -405 -3 0 -5 319 -5 709 0
701 0 709 21 735 l20 26 560 0 559 0 -25 -50z m-284 -886 c163 -214 190 -244
221 -244 7 0 81 70 164 157 l151 157 21 -25 c12 -13 127 -157 256 -319 168
-212 230 -297 221 -303 -21 -11 -1838 -4 -1842 8 -1 6 135 191 303 413 247
325 309 400 320 391 7 -6 91 -112 185 -235z"/>
<path d="M1840 1975 c-55 -16 -100 -39 -100 -53 0 -4 99 -106 219 -226 244
-244 235 -239 268 -143 25 74 23 178 -6 243 -27 63 -100 136 -163 164 -63 28
-150 34 -218 15z m223 -63 c103 -58 158 -170 138 -283 -5 -32 -14 -66 -18 -74
-7 -11 -53 30 -197 174 l-189 189 49 16 c71 23 152 15 217 -22z"/>
<path d="M1631 1813 c-5 -10 -17 -45 -26 -77 -55 -190 76 -382 274 -402 68 -8
198 26 208 52 4 11 -58 80 -208 230 -118 118 -219 214 -226 214 -7 0 -17 -8
-22 -17z m223 -230 c175 -179 178 -183 153 -192 -15 -6 -48 -13 -75 -17 -164
-21 -319 134 -298 298 8 57 23 101 34 96 4 -2 88 -85 186 -185z"/>
<path d="M621 1738 c-194 -96 -108 -387 109 -366 154 15 228 209 122 322 -61
64 -154 82 -231 44z m159 -37 c108 -57 108 -219 0 -273 -149 -75 -299 106
-193 233 50 58 128 75 193 40z"/>
</g>
</svg>
